<svg xmlns="http://www.w3.org/2000/svg" viewBox="0 0 200 200">
  <circle cx="100" cy="100" r="100" fill="#2494DC"/>
  <path fill="#ffffff" d="M140 122.6c-7.379 0-13.988 3.343-18.394 8.588L82.46 108.434A23.806 23.806 0 0 0 84 100c0-2.968-.548-5.81-1.541-8.435l39.127-22.776C125.991 74.047 132.61 77.4 140 77.4c13.233 0 24-10.744 24-23.95S153.233 29.5 140 29.5s-24 10.744-24 23.95c0 2.968.548 5.81 1.541 8.435L78.415 84.661C74.009 79.403 67.39 76.05 60 76.05c-13.233 0-24 10.744-24 23.95s10.767 23.95 24 23.95c7.391 0 14.011-3.354 18.417-8.614l39.137 22.749a23.773 23.773 0 0 0-1.553 8.465c0 13.206 10.767 23.95 24 23.95s24-10.744 24-23.95S153.233 122.6 140 122.6zm0-85.1c8.822 0 16 7.155 16 15.95s-7.178 15.95-16 15.95-16-7.155-16-15.95 7.178-15.95 16-15.95zm-80 78.45c-8.822 0-16-7.155-16-15.95s7.178-15.95 16-15.95S76 91.205 76 100s-7.178 15.95-16 15.95zm80 46.55c-8.822 0-16-7.155-16-15.95a15.8 15.8 0 0 1 1.894-7.513c.132-.162.256-.332.364-.518.07-.121.114-.25.17-.375 2.828-4.52 7.846-7.544 13.572-7.544 8.822 0 16 7.155 16 15.95s-7.178 15.95-16 15.95z"/>
</svg>
