<svg xmlns="http://www.w3.org/2000/svg" viewBox="0 0 200 200">
  <path fill="#2494DC" d="M162.989 102.465l1.721-2.77c5.894-9.482 2.985-21.947-6.497-27.842l-2.769-1.721a20.218 20.218 0 0 1-9.015-12.576l-.741-3.176c-2.537-10.873-13.408-17.631-24.282-15.094l-3.175.741a20.218 20.218 0 0 1-15.267-2.518l-2.769-1.721c-9.483-5.894-21.948-2.986-27.842 6.497l-1.721 2.769a20.218 20.218 0 0 1-12.576 9.015l-3.175.741c-10.872 2.538-17.63 13.41-15.093 24.283l.741 3.175a20.218 20.218 0 0 1-2.518 15.267l-1.721 2.769c-5.894 9.482-2.986 21.948 6.497 27.842l2.769 1.721a20.218 20.218 0 0 1 9.015 12.576l.741 3.175c2.537 10.873 13.408 17.631 24.282 15.094l3.174-.741a20.218 20.218 0 0 1 15.267 2.518l2.77 1.722c9.483 5.894 21.948 2.985 27.842-6.497l1.721-2.769a20.214 20.214 0 0 1 12.576-9.015l3.175-.741c10.873-2.537 17.631-13.408 15.094-24.282l-.741-3.175a20.217 20.217 0 0 1 2.517-15.267z"/>
  <circle cx="100" cy="100" r="74.5" fill="none" stroke="#ffffff" stroke-width="3"/>
  <text x="100" y="107" font-family="Lato, Arial, sans-serif" font-weight="700" font-size="30" fill="#ffffff" text-anchor="middle">SEUs</text>
</svg>
