<svg xmlns="http://www.w3.org/2000/svg" viewBox="53 42.5 94 115">
  <path fill="#2494DC" d="M122.406 93.182c-6.167 0-12.551-2.701-17.863-8.039-4.674-4.694-7.51-10.461-7.987-16.236-.51-6.16 1.715-12.07 6.267-16.639l3.445-3.461c8.984-9.023 22.75-8.294 32.731 1.732 9.981 10.026 10.704 23.852 1.72 32.875l-3.445 3.46c-4.202 4.221-9.451 6.308-14.868 6.308zm-1.242-45.816c-4.173 0-8.185 1.621-11.451 4.901l-3.445 3.461c-3.571 3.587-5.251 8.004-4.857 12.774.383 4.623 2.718 9.304 6.577 13.181 8.118 8.151 18.741 8.863 25.841 1.731l3.445-3.46c7.1-7.132 6.393-17.805-1.72-25.955-4.381-4.4-9.496-6.633-14.39-6.633z"/>
  <path fill="#2494DC" d="M133.157 87.333c-1.839 0-3.919-.433-6.172-1.302-4.54-1.755-9.453-5.142-13.828-9.539-9.822-9.863-13.525-21.02-8.615-25.951l3.445 3.46c-2.106 2.116.202 10.581 8.615 19.031 3.907 3.923 8.216 6.918 12.134 8.432 3.131 1.212 5.741 1.295 6.814.222l3.445 3.46c-1.448 1.454-3.442 2.187-5.838 2.187z"/>
  <path fill="#2494DC" d="M69.585 130.901c-1.589.001-3.116-.565-4.264-1.719l-6.225-6.159c-2.505-2.515-2.352-6.702.335-9.544l31.592-32.785v-3.189l5.933-9.254 4.097 2.65-5.157 8.042v3.731l-32.947 34.191c-.895.946-.946 2.158-.421 2.685l6.225 6.159c.496.502 1.773.349 2.748-.584l35.553-31.984h3.69l7.837-4.857 2.56 4.165-9.017 5.586h-3.205l-34.115 30.687c-1.51 1.442-3.406 2.179-5.219 2.179z"/>
  <path fill="#2494DC" d="M72.008 157.5a15.267 15.267 0 0 1-10.853-4.508l-3.666-3.682c-5.985-6.01-5.985-15.791 0-21.8l4.27-4.288 3.445 3.46-4.27 4.288c-4.084 4.103-4.084 10.777 0 14.88l3.666 3.682c4.085 4.103 10.73 4.103 14.816 0l29.247-29.376c5.986-6.01 15.722-6.01 21.708 0l.109.112a15.348 15.348 0 0 1 4.397 10.8c0 4.117-1.596 7.988-4.497 10.9l-7.923 7.959-3.445-3.46 7.923-7.959a10.473 10.473 0 0 0 3.069-7.44c0-2.81-1.09-5.452-3.069-7.44l-.1-.102c-4.095-4.013-10.673-3.981-14.728.09L82.86 152.992a15.263 15.263 0 0 1-10.852 4.508z"/>
</svg>
