<svg xmlns="http://www.w3.org/2000/svg" viewBox="27.015 20.94 145.968 158.12">
  <path fill="#2494DC" d="M169.425 93.947c-5.775.321-16.166 3.752-22.432 13.729-4.943-4.708-12.382-8.025-20.357-8.916-7.232-.807-14.152.403-20.131 3.423 1.268-7.269 1.73-14.903 2.152-21.93.611-10.191 1.191-19.86 3.891-25.25.86-.1 2.146-.241 3.894-.426.08 3.101.79 10.63 5.648 14.605 1.944 1.59 5.357 3.226 10.575 1.984 10.251-2.44 16.311-16.078 19.588-27.088 1.311-4.402-.595-9.064-4.633-11.338-10.091-5.683-21.939-9.575-35.216-11.569l-.531-.08c-6.038-.932-8.067 2.511-11.751 8.757l-.417.708c-.812 1.374-3.319 3.405-6.223 5.756-8.479 6.867-22.67 18.359-32.916 42.639-12.444 29.486-13.716 54.185-13.836 60.101-1.562 1.892-4.579 6.034-5.393 10.647-1.107 6.278 3.016 9.232 6.329 11.605.69.494 1.417 1.014 2.152 1.592 4.195 3.297 10.35 2.571 13.51 1.89 15.482 10.32 31.864 14.274 46.773 14.274 19.384 0 36.276-6.689 45.444-14.778a3.371 3.371 0 1 0-4.462-5.057c-14.748 13.014-51.867 21.848-84.701-.513-1.109-.757-2.516-.997-3.861-.661-2.785.695-6.691.993-8.536-.458a65.295 65.295 0 0 0-2.392-1.771c-3.5-2.508-3.94-3.109-3.615-4.951.594-3.364 3.505-7.093 4.572-8.241l.925-.988-.013-1.353c-.002-.266-.102-26.92 13.317-58.716 9.59-22.724 22.442-33.132 30.947-40.02 3.689-2.988 6.355-5.146 7.785-7.566l.42-.712c3.394-5.754 3.481-5.74 4.917-5.519l.555.084c12.463 1.872 23.535 5.498 32.909 10.776 1.277.719 1.885 2.174 1.479 3.538-3.803 12.775-9.294 21.169-14.687 22.453-3.061.728-4.321-.3-4.736-.637-2.42-1.972-3.084-6.893-3.178-9.459l2.376 1.286a3.372 3.372 0 1 0 3.211-5.931l-3.116-1.687-.098-.051a8.057 8.057 0 0 0-4.436-.813c-12.534 1.272-12.534 1.272-13.486 2.717-4.319 6.542-4.966 17.329-5.715 29.819-1.13 18.819-2.409 40.149-17.474 46.175a3.373 3.373 0 1 0 2.505 6.262c9.201-3.68 14.293-11.341 17.24-20.504.018-.015.038-.024.055-.039 5.725-4.971 13.41-7.201 21.635-6.281 7.414.828 14.388 4.249 17.999 8.772a35.864 35.864 0 0 0-1.11 3.933 3.374 3.374 0 0 0 3.296 4.1 3.377 3.377 0 0 0 3.29-2.646 23.161 23.161 0 0 1 20.448-18.941 3.372 3.372 0 0 0 3.168-3.553 3.371 3.371 0 0 0-3.553-3.182z"/>
  <path fill="#2494DC" d="M136.658 142.277c-3.13 3.867-9.5 6.635-16.622 7.225-8.386.688-16.34-1.701-21.833-6.569a3.373 3.373 0 0 0-4.473 5.047c6.102 5.408 14.518 8.383 23.483 8.383a40.82 40.82 0 0 0 3.378-.14c9.029-.747 16.994-4.374 21.307-9.701a3.373 3.373 0 0 0-5.24-4.245z"/>
  <path fill="#2494DC" d="M27.31 92.922l16.424 2.925-.295 1.662-16.424-2.925.296-1.662z"/>
  <path fill="#2494DC" d="M30.189 80.513l16.087 4.416-.447 1.627-16.087-4.416.447-1.627z"/>
  <path fill="#2494DC" d="M34.226 68.39l15.598 5.917-.6 1.578-15.597-5.917.6-1.578z"/>
  <path fill="#2494DC" d="M39.463 56.644l14.914 7.473-.756 1.51-14.914-7.474.756-1.51z"/>
</svg>
